<?xml version="1.0" standalone="no"?>
<!DOCTYPE svg PUBLIC "-//W3C//DTD SVG 20010904//EN"
 "http://www.w3.org/TR/2001/REC-SVG-20010904/DTD/svg10.dtd">
<svg version="1.0" xmlns="http://www.w3.org/2000/svg"
 width="212.000000pt" height="212.000000pt" viewBox="0 0 212.000000 212.000000"
 preserveAspectRatio="xMidYMid meet">
<metadata>
Created by potrace 1.10, written by Peter Selinger 2001-2011
</metadata>
<g transform="translate(0.000000,212.000000) scale(0.050000,-0.050000)"
fill="#000000" stroke="none">
<path d="M3070 3752 c-99 -58 -441 -257 -760 -442 -1985 -1153 -1882 -1090
-1789 -1090 27 0 231 19 454 43 223 24 409 39 414 35 5 -5 94 -221 198 -479
146 -362 198 -470 227 -475 21 -3 276 40 566 95 290 56 534 94 541 86 8 -8 83
-199 168 -425 84 -226 162 -419 172 -429 12 -12 19 596 19 1585 0 882 -7 1604
-15 1603 -8 0 -96 -48 -195 -107z m169 -697 l-1 -725 -70 191 -70 192 -244
-36 c-361 -53 -318 -72 -444 195 -87 186 -116 230 -142 220 -53 -20 -331 -75
-340 -67 -4 4 107 72 247 151 140 79 431 246 645 373 215 126 397 229 405 230
8 1 14 -325 14 -724z m-859 -240 c58 -124 108 -228 111 -231 3 -4 129 12 281
34 323 48 285 68 387 -204 l82 -216 -6 -674 c-6 -767 15 -738 -166 -234 -119
332 -92 310 -313 268 -791 -151 -928 -174 -939 -162 -7 8 -95 221 -196 474
-101 253 -190 467 -199 476 -9 9 -165 -3 -348 -27 -483 -61 -484 -59 -127 144
166 95 421 242 565 325 248 145 495 228 740 250 12 1 69 -99 128 -223z"/>
</g>
<style>
path {
    fill: #fff
}
</style>
</svg>
