<?xml version="1.0" standalone="no"?>
<!DOCTYPE svg PUBLIC "-//W3C//DTD SVG 20010904//EN"
 "http://www.w3.org/TR/2001/REC-SVG-20010904/DTD/svg10.dtd">
<svg version="1.0" xmlns="http://www.w3.org/2000/svg"
 width="900.000000pt" height="471.000000pt" viewBox="0 0 900.000000 471.000000"
 preserveAspectRatio="xMidYMid meet">
<metadata>
Created by potrace 1.10, written by Peter Selinger 2001-2011
</metadata>
<g transform="translate(0.000000,471.000000) scale(0.100000,-0.100000)"
fill="#000000" stroke="none">
<path d="M5645 4402 c-44 -26 -87 -51 -95 -55 -8 -4 -28 -16 -45 -27 -16 -11
-41 -25 -55 -30 -13 -6 -27 -14 -30 -18 -3 -4 -16 -13 -30 -19 -14 -7 -47 -26
-75 -43 -27 -16 -62 -35 -77 -41 -16 -6 -28 -14 -28 -19 0 -4 -8 -10 -17 -14
-10 -3 -31 -15 -48 -26 -16 -10 -43 -26 -60 -34 -39 -20 -100 -55 -150 -87
-22 -15 -50 -29 -62 -33 -13 -4 -23 -11 -23 -16 0 -4 -11 -11 -25 -14 -14 -4
-25 -11 -25 -16 0 -6 -5 -10 -11 -10 -9 0 -152 -84 -277 -162 -15 -9 -43 -25
-62 -36 -112 -62 -158 -87 -185 -100 -16 -8 -44 -25 -62 -38 -17 -13 -35 -24
-38 -24 -4 0 -51 -26 -104 -58 -53 -32 -103 -61 -111 -65 -17 -9 -39 -22 -95
-58 -22 -14 -50 -29 -62 -33 -13 -4 -23 -11 -23 -16 0 -4 -11 -11 -25 -14 -14
-4 -25 -11 -25 -16 0 -6 -6 -10 -14 -10 -8 0 -21 -6 -28 -14 -8 -7 -24 -17
-36 -20 -12 -4 -22 -12 -22 -17 0 -5 -6 -9 -14 -9 -8 0 -21 -6 -28 -12 -7 -7
-35 -24 -61 -38 -91 -47 -102 -53 -107 -60 -8 -10 -110 -70 -120 -70 -14 0
-60 -46 -60 -60 0 -8 17 -10 63 -6 34 3 126 10 204 15 78 5 150 14 161 20 12
6 60 11 109 11 48 0 106 5 128 12 22 6 66 13 97 15 56 5 58 4 68 -24 5 -15 15
-36 20 -45 6 -10 10 -26 10 -37 0 -10 7 -24 15 -31 8 -7 15 -21 15 -32 0 -11
6 -32 13 -46 8 -15 21 -42 30 -60 9 -19 17 -41 17 -51 0 -9 7 -26 15 -37 8
-10 15 -27 15 -36 0 -15 20 -62 51 -120 5 -10 9 -25 9 -34 0 -9 7 -28 14 -42
8 -15 22 -45 31 -67 9 -22 23 -53 31 -68 8 -16 14 -35 14 -43 0 -7 10 -32 22
-55 l21 -41 78 4 c43 3 84 9 91 15 7 6 43 13 80 16 38 4 77 11 87 17 11 5 36
10 55 10 20 0 53 6 73 14 21 8 69 17 106 19 38 3 74 10 80 16 6 6 33 11 59 11
27 0 65 7 85 15 19 8 50 15 69 15 18 0 54 7 79 16 66 22 87 16 98 -26 5 -19
13 -39 18 -44 5 -6 9 -17 9 -25 0 -17 43 -127 54 -138 3 -3 6 -16 6 -28 0 -12
7 -30 15 -41 8 -10 15 -27 15 -37 0 -19 18 -66 46 -120 8 -16 14 -34 14 -40 1
-7 9 -30 20 -52 11 -22 19 -45 20 -52 0 -6 6 -24 14 -40 8 -15 20 -48 28 -73
11 -33 20 -45 34 -45 19 0 19 30 19 1435 0 1267 -2 1435 -15 1437 -8 2 -51
-18 -95 -45z m66 -667 c1 -346 -2 -631 -7 -633 -4 -2 -16 25 -27 60 -11 35
-23 71 -28 80 -5 10 -9 23 -9 29 0 6 -6 25 -14 42 -8 18 -17 44 -20 59 -9 39
-36 51 -88 37 -24 -6 -81 -15 -128 -19 -47 -4 -96 -12 -110 -18 -14 -5 -67
-11 -118 -13 -107 -5 -87 -21 -165 141 -25 52 -62 130 -83 173 l-38 77 -42 0
c-24 0 -63 -6 -86 -14 -38 -13 -90 -25 -183 -43 -30 -6 -30 -6 -11 16 10 11
42 32 70 46 62 29 161 84 225 123 26 16 57 33 69 36 12 4 22 11 22 16 0 4 11
11 25 14 14 4 25 11 25 16 0 6 6 10 14 10 8 0 21 6 28 13 7 7 24 18 38 24 34
17 96 53 147 86 24 15 47 27 52 27 5 0 16 6 23 13 7 6 31 21 52 32 22 11 44
25 50 30 6 6 29 19 51 30 22 11 58 32 80 46 22 15 60 37 85 50 25 13 51 29 59
37 7 7 20 12 27 10 12 -3 14 -106 15 -633z m-840 -95 c15 -30 30 -62 33 -70 3
-8 10 -22 15 -30 5 -8 34 -67 65 -131 31 -64 63 -119 70 -122 8 -3 30 -1 48 4
18 6 75 14 126 19 51 5 100 14 110 19 9 5 64 10 121 12 l104 4 20 -55 c10 -30
22 -59 27 -65 4 -5 10 -27 14 -47 4 -21 11 -38 16 -38 6 0 10 -8 10 -17 0 -10
6 -29 13 -43 45 -86 46 -94 48 -727 1 -350 -2 -603 -7 -604 -5 0 -11 8 -13 18
-2 10 -7 23 -11 28 -4 6 -11 26 -15 45 -4 19 -10 40 -14 45 -4 6 -18 44 -30
85 -13 41 -28 79 -32 84 -5 6 -9 19 -9 30 0 12 -6 33 -14 48 -8 15 -17 40 -21
57 -4 17 -11 31 -16 31 -5 0 -9 13 -9 28 0 16 -7 37 -15 48 -8 10 -15 26 -15
35 0 9 -9 28 -21 43 -24 30 -64 34 -131 12 -24 -8 -72 -16 -107 -19 -35 -3
-68 -10 -74 -16 -6 -6 -34 -11 -61 -11 -28 -1 -69 -7 -91 -15 -22 -8 -56 -15
-76 -15 -20 0 -59 -6 -85 -14 -50 -15 -126 -29 -249 -47 -38 -5 -74 -14 -79
-19 -6 -6 -25 -10 -44 -10 -37 0 -61 21 -62 53 0 10 -9 39 -21 65 -11 26 -25
58 -31 72 -5 14 -16 39 -24 55 -7 17 -16 42 -20 58 -3 15 -10 30 -15 33 -5 3
-9 12 -9 20 0 14 -30 90 -50 126 -6 10 -10 23 -10 28 0 6 -9 32 -21 58 -11 26
-25 58 -30 72 -6 14 -17 38 -25 53 -8 16 -14 33 -14 38 0 10 -33 90 -49 119
-12 22 -126 25 -236 6 -49 -8 -126 -18 -169 -21 -44 -3 -87 -10 -95 -14 -9 -5
-58 -12 -110 -16 -72 -6 -93 -5 -89 5 3 11 159 100 228 130 13 6 27 14 30 18
3 4 16 13 30 19 33 16 95 52 145 84 62 40 127 78 155 90 14 6 39 21 57 35 17
13 35 24 38 24 4 0 44 22 89 49 141 85 150 91 176 102 13 5 27 14 30 18 5 7
31 15 130 41 19 5 52 10 72 10 20 0 40 5 43 10 3 6 27 10 53 11 26 0 63 6 82
14 19 7 48 12 64 12 25 -2 33 -10 57 -57z"/>
<path d="M1962 1346 c-11 -18 -23 -44 -27 -57 -5 -13 -18 -41 -31 -61 -13 -20
-26 -48 -30 -62 -3 -14 -12 -30 -20 -37 -8 -6 -14 -18 -14 -25 0 -8 -11 -32
-25 -54 -14 -22 -25 -43 -25 -47 0 -4 -75 -157 -167 -341 -172 -344 -175 -351
-121 -352 14 0 53 64 102 168 6 13 27 56 46 94 l35 71 330 0 330 0 32 -64 c17
-35 49 -102 72 -149 54 -115 62 -125 94 -116 33 8 34 25 4 74 -13 20 -72 136
-131 257 -60 121 -158 319 -219 440 -61 121 -119 237 -129 258 -16 32 -23 37
-52 37 -28 0 -38 -6 -54 -34z m93 -104 c4 -15 62 -138 130 -275 68 -136 122
-253 119 -260 -6 -17 -574 -13 -585 4 -6 11 7 39 49 104 6 11 17 31 23 44 5
14 50 107 100 206 49 100 89 186 89 190 0 5 7 17 17 27 15 17 18 17 34 2 9 -8
20 -27 24 -42z"/>
<path d="M3025 1374 c-117 -29 -222 -98 -256 -168 -30 -61 -26 -150 9 -200 36
-53 122 -108 207 -133 39 -12 94 -28 124 -37 29 -9 63 -16 74 -16 11 0 34 -4
51 -10 17 -5 65 -19 106 -30 97 -28 133 -46 180 -92 84 -84 50 -218 -72 -280
-104 -52 -106 -53 -268 -52 l-155 1 -75 35 c-76 35 -139 89 -165 139 -15 28
-47 45 -65 34 -20 -12 -10 -58 21 -97 30 -38 129 -118 146 -118 4 0 19 -6 33
-13 60 -31 173 -49 285 -44 121 5 144 9 225 40 66 26 68 28 135 94 43 42 55
62 64 103 12 57 2 124 -26 167 -20 31 -109 98 -143 107 -14 4 -34 11 -45 16
-28 12 -122 39 -175 50 -41 8 -99 22 -205 49 -63 16 -153 65 -185 101 -55 62
-52 136 9 199 70 73 165 105 311 105 157 0 269 -43 333 -129 40 -54 74 -76 87
-55 20 32 10 60 -39 106 -52 49 -111 86 -176 111 -40 15 -305 28 -350 17z"/>
<path d="M7331 1356 c-11 -13 -14 -411 -7 -866 1 -78 -18 -76 -84 7 -51 64
-92 113 -144 173 -12 14 -57 68 -101 120 -44 52 -84 100 -90 106 -5 6 -30 35
-55 64 -25 30 -74 88 -110 130 -36 41 -68 80 -72 85 -15 21 -104 119 -137 152
-32 31 -73 43 -85 25 -3 -5 -6 -240 -7 -523 l-3 -514 34 0 34 0 -3 461 c-3
493 -2 506 43 452 122 -148 207 -250 236 -281 19 -21 40 -47 45 -57 6 -10 35
-44 65 -77 30 -32 89 -99 130 -148 41 -50 97 -115 123 -145 26 -30 67 -77 90
-103 81 -92 99 -108 121 -105 l21 3 5 510 c3 281 1 518 -3 528 -9 21 -30 22
-46 3z"/>
<path d="M5688 1350 c-218 -3 -399 -8 -402 -11 -8 -8 -8 -981 -1 -1002 6 -14
55 -16 423 -19 229 -2 423 -2 430 0 6 2 12 17 12 33 l0 30 -390 -1 c-214 -1
-394 1 -400 5 -11 7 -14 392 -4 420 6 14 37 16 294 14 159 0 293 2 299 5 17
11 13 33 -6 40 -10 4 -142 6 -294 5 -153 -1 -282 2 -288 5 -12 8 -16 381 -5
410 5 14 50 16 395 16 345 0 390 2 396 16 7 19 -5 32 -37 36 -14 2 -204 1
-422 -2z"/>
<path d="M3980 1343 c-4 -83 -2 -1015 2 -1018 9 -9 538 -5 556 4 9 4 37 11 60
15 58 9 156 64 209 117 24 24 43 46 43 50 0 4 6 14 13 21 7 7 20 38 30 69 22
73 24 379 3 462 -34 130 -126 213 -299 271 -39 13 -98 16 -332 16 -157 0 -285
-3 -285 -7z m562 -58 c89 -22 184 -73 227 -121 62 -71 71 -115 71 -335 l0
-194 -30 -59 c-28 -55 -92 -126 -114 -126 -5 0 -17 -6 -25 -13 -9 -8 -38 -22
-66 -33 -44 -16 -79 -19 -305 -19 l-255 0 -3 435 c-1 239 0 445 3 458 5 22 6
22 219 22 159 0 231 -4 278 -15z"/>
</g>
<style>
path {
    fill: #fff
}
</style>
</svg>
